# xmcd
#
# Track frame offsets:
#	150
#	25039
#	37905
#	62550
#	79233
#	100374
#	116256
#	132145
#	159261
#	169918
#	187447
#	205283
#	244640
#	262140
#
# Disc length: 3728 seconds
#
# Revision: 0
# Processed by: cddbd v1.5.2PL0 Copyright (c) Steve Scherf et al.
# Submitted via: EasyCDDAExtractor 11.5.3.1
#
DISCID=bc0e8e0e
DTITLE=D. J. Rogers - Love Brought Me Back (Expanded Edition)
DYEAR=1978
DGENRE=Soul
TTITLE0=Love Brought Me Back
TTITLE1=Joy From You
TTITLE2=When Love is Gone
TTITLE3=Yesterday Never Returns
TTITLE4=Sold on You
TTITLE5=You Take Me Higher (Brazilian Lover)
TTITLE6=Hold Me
TTITLE7=All My Love
TTITLE8=Changed
TTITLE9=Love Brought Me Back, Pt. 1
TTITLE10=Love Brought Me Back, Pt. 2
TTITLE11=Love Brought Me Back (US Columbia 7" Single as 475)
TTITLE12=All My Love, Pt. 1 (US Columbia 7" Single 3-10838)
TTITLE13=All My Love Pt. 2 (US Columbia 7" Single 3-10838)
EXTD=
EXTT0=
EXTT1=
EXTT2=
EXTT3=
EXTT4=
EXTT5=
EXTT6=
EXTT7=
EXTT8=
EXTT9=
EXTT10=
EXTT11=
EXTT12=
EXTT13=
PLAYORDER=
